<?xml version="1.0" standalone="no"?>
<!DOCTYPE svg PUBLIC "-//W3C//DTD SVG 20010904//EN"
 "http://www.w3.org/TR/2001/REC-SVG-20010904/DTD/svg10.dtd">
<svg version="1.0" xmlns="http://www.w3.org/2000/svg"
 width="528.000000pt" height="528.000000pt" viewBox="0 0 528.000000 528.000000"
 preserveAspectRatio="xMidYMid meet">
<metadata>
Created by potrace 1.11, written by Peter Selinger 2001-2013
</metadata>
<g transform="translate(0.000000,528.000000) scale(0.100000,-0.100000)"
fill="#000000" stroke="none">
<path d="M2391 5209 c-73 -29 -120 -97 -121 -173 0 -56 35 -122 81 -153 36
-24 53 -27 187 -34 445 -26 822 -164 1167 -428 93 -70 249 -226 334 -332 234
-289 383 -647 431 -1029 13 -109 13 -361 0 -470 -56 -450 -250 -859 -558
-1174 -294 -301 -668 -504 -1067 -579 -138 -26 -156 -29 -300 -36 -161 -8
-202 -22 -242 -82 -63 -95 -31 -216 72 -273 29 -16 27 -17 -70 -11 -556 33
-1087 265 -1502 657 -60 55 -94 80 -124 88 -163 44 -296 -133 -208 -276 27
-44 191 -190 332 -296 892 -668 2113 -728 3076 -153 454 272 814 661 1050
1136 159 318 248 633 282 993 14 156 7 476 -15 624 -85 573 -320 1065 -715
1501 -86 94 -133 123 -201 123 -89 0 -156 -52 -180 -140 -10 -40 -7 -67 15
-127 5 -13 -7 -6 -36 21 -245 231 -603 434 -942 534 -248 74 -661 123 -746 89z"/>
<path d="M530 3188 c0 -7 41 -266 92 -575 l92 -563 172 0 c170 0 172 0 177 23
3 12 35 198 72 412 37 215 70 393 74 397 3 4 37 -182 75 -412 l69 -420 176 0
177 0 93 553 c51 303 95 562 98 575 5 22 5 22 -125 22 l-130 0 -5 -32 c-4 -18
-34 -226 -67 -463 -54 -377 -70 -475 -70 -426 0 7 -31 212 -70 456 -38 244
-70 448 -70 454 0 13 -290 16 -290 4 -1 -5 -36 -215 -79 -468 -61 -363 -79
-452 -84 -420 -8 47 -107 864 -107 883 0 9 -34 12 -135 12 -101 0 -135 -3
-135 -12z"/>
<path d="M2191 3184 c-77 -21 -147 -61 -209 -122 -30 -29 -53 -54 -51 -56 2
-2 37 -32 78 -65 l74 -62 46 45 c74 72 150 93 226 62 48 -20 75 -68 75 -133 0
-118 -58 -206 -300 -456 l-160 -165 0 -91 0 -91 364 0 364 0 11 75 c6 42 11
87 11 100 l0 25 -225 0 -224 0 147 148 c223 222 289 338 280 492 -8 123 -65
210 -173 263 -96 47 -228 60 -334 31z"/>
<path d="M2780 3075 l0 -95 225 0 c124 0 225 -2 225 -5 0 -3 -81 -193 -180
-422 -99 -229 -181 -423 -183 -431 -1 -11 32 -26 112 -53 63 -21 116 -38 117
-36 1 1 95 221 208 488 l206 485 0 82 0 82 -365 0 -365 0 0 -95z"/>
</g>
</svg>
