<?xml version="1.0" standalone="no"?>
<!DOCTYPE svg PUBLIC "-//W3C//DTD SVG 20010904//EN"
 "http://www.w3.org/TR/2001/REC-SVG-20010904/DTD/svg10.dtd">
<svg version="1.0" xmlns="http://www.w3.org/2000/svg"
 width="700.000000pt" height="700.000000pt" viewBox="0 0 700.000000 700.000000"
 preserveAspectRatio="xMidYMid meet">
<metadata>
Created by potrace 1.11, written by Peter Selinger 2001-2013
</metadata>
<g transform="translate(0.000000,700.000000) scale(0.100000,-0.100000)"
fill="#000000" stroke="none">
<path d="M0 3500 l0 -3500 3500 0 3500 0 0 3500 0 3500 -3500 0 -3500 0 0
-3500z m4116 1571 c146 -11 259 -39 380 -96 123 -57 203 -113 300 -210 95 -94
150 -173 210 -299 127 -269 131 -600 9 -863 -19 -40 -32 -73 -29 -73 3 0 39
-7 80 -15 90 -19 148 -43 192 -79 38 -33 704 -1142 721 -1201 33 -121 -59
-237 -224 -280 -109 -28 -207 -20 -832 70 -326 47 -626 85 -667 85 -78 0 -195
-16 -741 -100 -970 -149 -869 -145 -1433 -54 -224 36 -504 81 -622 100 -118
19 -233 40 -255 45 -175 47 -256 182 -188 314 44 85 629 1054 650 1077 35 37
126 75 214 90 41 6 75 12 76 13 1 0 -12 41 -28 90 -33 98 -59 247 -59 340 0
258 107 525 286 715 186 197 413 307 679 330 128 10 1136 11 1281 1z"/>
<path d="M2805 4819 c-91 -14 -154 -35 -256 -86 -77 -38 -110 -62 -185 -137
-55 -55 -108 -119 -133 -163 -157 -266 -145 -606 29 -862 83 -123 228 -240
360 -291 63 -24 79 -35 103 -70 32 -47 15 -130 -35 -164 -80 -56 -315 52 -495
227 l-82 80 -108 -6 c-59 -2 -121 -10 -138 -16 -25 -10 -73 -85 -315 -492
-157 -263 -286 -486 -288 -494 -2 -8 2 -15 8 -15 6 0 122 -18 258 -40 136 -22
414 -67 617 -100 383 -62 479 -70 615 -50 36 5 184 28 330 50 330 50 606 92
863 130 294 44 309 44 997 -56 489 -70 610 -85 678 -81 46 3 88 9 92 13 4 5
-132 244 -303 531 -356 596 -310 543 -490 564 l-106 12 -57 -52 c-79 -72 -160
-126 -269 -177 -189 -90 -302 -104 -823 -104 l-376 0 -201 -199 c-169 -168
-206 -200 -238 -206 -44 -9 -85 6 -119 42 -18 19 -23 36 -23 79 l0 54 225 226
c124 124 237 232 252 240 22 11 104 14 463 14 474 0 531 4 663 52 479 173 673
763 392 1191 -102 156 -283 288 -467 340 -76 21 -93 21 -728 23 -357 1 -677
-2 -710 -7z m194 -638 c106 -53 135 -200 58 -288 -34 -39 -97 -72 -137 -73
-156 -1 -251 171 -166 300 54 81 155 106 245 61z m591 -2 c123 -69 127 -253 7
-328 -127 -78 -290 13 -290 163 0 73 39 137 108 174 35 20 133 14 175 -9z
m605 -13 c145 -111 61 -346 -125 -346 -40 0 -111 41 -144 83 -55 68 -45 190
20 249 43 38 78 49 145 46 54 -3 73 -9 104 -32z"/>
</g>
</svg>
