
<svg xmlns="http://www.w3.org/2000/svg" viewBox="0 0 256 163.37">
    <defs>
        <style>
            .bubble {
                fill: #fff3f3
            }

            .map {
                fill: #ffd0cc;
                opacity: 0.8
            }
        </style>
    </defs>
    <path
        class="map"
        d="M82.64 163.37a58.49 58.49 0 01-9.44-.74L13.78 153c-8.23-1.33-11.54-5-12.87-7.86a10.14 10.14 0 01.65-9.58l31.53-52.71c4.12-6.88 18.15-7.74 24.3-7.08l4.38.48-1.34 12.46-4.38-.47c-5.32-.58-10.83.65-12.54 1.6l-30 50.25a16 16 0 002.32.55l59.43 9.62a50.55 50.55 0 0015.19 0L158 140a63.06 63.06 0 0118.15 0l55 7.89c5.72.82 9.63.07 11.54-.66l-32.2-53.83a19.63 19.63 0 00-7-1.74l-11.61-1.16 1.29-12.5 11.61 1.15c4.7.47 13.06 2 16.2 7.28l33.38 55.82a10.44 10.44 0 01-.08 11.36c-3.83 5.76-13.37 8.3-24.88 6.66l-55-7.89a50.25 50.25 0 00-14.49 0l-67.63 10.26a63.85 63.85 0 01-9.64.73z"
    />
    <g class="bubble-group">
        <path
            class="bubble"
            d="M94.27 128.66A6.27 6.27 0 0189.83 118L111 96.82a6.23 6.23 0 014.41-1.82h40.71a41.23 41.23 0 000-82.45h-57.2a41.23 41.23 0 00-13.46 80.2 6.27 6.27 0 01-4.09 11.85A53.76 53.76 0 0198.92 0h57.2a53.76 53.76 0 010 107.52H118l-19.3 19.3a6.24 6.24 0 01-4.43 1.84z"
        />
        <circle class="bubble" cx="158.23" cy="54.3" r="9.78"/>
        <circle class="bubble" cx="128.31" cy="54.3" r="9.78"/>
        <circle class="bubble" cx="98.39" cy="54.3" r="9.78"/>
    </g>
</svg>
