<svg xmlns="http://www.w3.org/2000/svg" xmlns:xlink="http://www.w3.org/1999/xlink" viewBox="0 0 256 66.92"><defs><style>.cls-1{fill:url(#linear-gradient);}.cls-2{fill:url(#linear-gradient-2);}.cls-3{fill:url(#linear-gradient-3);}.cls-4{fill:url(#linear-gradient-4);}.cls-5{fill:url(#linear-gradient-5);}.cls-6{fill:url(#linear-gradient-6);}</style><linearGradient id="linear-gradient" x1="11.76" y1="8.72" x2="92.06" y2="147.8" gradientUnits="userSpaceOnUse"><stop offset="0" stop-color="#f3543f"/><stop offset="0.26" stop-color="#ef503c"/><stop offset="0.52" stop-color="#e34332"/><stop offset="0.79" stop-color="#ce2f23"/><stop offset="1" stop-color="#b91912"/></linearGradient><linearGradient id="linear-gradient-2" x1="57.96" y1="-17.96" x2="138.26" y2="121.13" xlink:href="#linear-gradient"/><linearGradient id="linear-gradient-3" x1="85.85" y1="-34.06" x2="166.15" y2="105.02" xlink:href="#linear-gradient"/><linearGradient id="linear-gradient-4" x1="117.69" y1="-52.44" x2="197.99" y2="86.64" xlink:href="#linear-gradient"/><linearGradient id="linear-gradient-5" x1="138.17" y1="-64.27" x2="218.48" y2="74.82" xlink:href="#linear-gradient"/><linearGradient id="linear-gradient-6" x1="169.59" y1="-82.41" x2="249.9" y2="56.67" xlink:href="#linear-gradient"/></defs><g id="Layer_2" data-name="Layer 2"><g id="Layer_1-2" data-name="Layer 1"><path class="cls-1" d="M0,15.5H9.45v4.33a16.09,16.09,0,0,1,5.38-4,15.71,15.71,0,0,1,6.46-1.32,12,12,0,0,1,6.37,1.73,12.53,12.53,0,0,1,4.57,5.06,15.24,15.24,0,0,1,5.53-5.06,15.08,15.08,0,0,1,7.15-1.73A13.29,13.29,0,0,1,52,16.4a10.82,10.82,0,0,1,4.38,4.88q1.34,3,1.33,9.79V53.15H48.17V34.05q0-6.4-1.59-8.67a5.46,5.46,0,0,0-4.78-2.26,7.26,7.26,0,0,0-4.34,1.38,8.25,8.25,0,0,0-2.86,3.82,23.89,23.89,0,0,0-.93,7.84v17H24.15V34.92a26,26,0,0,0-.74-7.32,6.7,6.7,0,0,0-2.24-3.38,5.87,5.87,0,0,0-3.61-1.1,7.06,7.06,0,0,0-4.28,1.4,8.39,8.39,0,0,0-2.88,3.92,24.22,24.22,0,0,0-1,8V53.15H0Z"/><path class="cls-2" d="M94.47,15.5h9.45V53.15H94.47v-4A18.25,18.25,0,0,1,88.92,53a15.54,15.54,0,0,1-6,1.16,16.78,16.78,0,0,1-12.62-5.66A19.76,19.76,0,0,1,65,34.4q0-8.73,5.15-14.3a16.42,16.42,0,0,1,12.51-5.57A16,16,0,0,1,89,15.81a17.45,17.45,0,0,1,5.5,3.85Zm-9.93,7.75a9.57,9.57,0,0,0-7.28,3.1,11.17,11.17,0,0,0-2.9,7.94,11.3,11.3,0,0,0,3,8,9.57,9.57,0,0,0,7.26,3.15A9.7,9.7,0,0,0,92,42.37a11.28,11.28,0,0,0,2.93-8.11,11,11,0,0,0-2.93-8A9.84,9.84,0,0,0,84.54,23.25Z"/><path class="cls-3" d="M122.84,15.5v4.16a18,18,0,0,1,5.54-3.85,16,16,0,0,1,6.37-1.28,16.43,16.43,0,0,1,12.52,5.57q5.16,5.58,5.16,14.3a19.73,19.73,0,0,1-5.33,14.06,16.78,16.78,0,0,1-12.63,5.66A15.68,15.68,0,0,1,128.42,53a18.36,18.36,0,0,1-5.58-3.79V66.92h-9.37V15.5Zm9.94,7.75a9.87,9.87,0,0,0-7.41,3.05,11,11,0,0,0-2.94,8,11.29,11.29,0,0,0,2.94,8.11,9.77,9.77,0,0,0,7.41,3.1,9.59,9.59,0,0,0,7.28-3.15,11.26,11.26,0,0,0,3-8,11.14,11.14,0,0,0-2.91-7.94A9.65,9.65,0,0,0,132.78,23.25Z"/><path class="cls-4" d="M163.94,0a5.79,5.79,0,0,1,4.26,1.8A6,6,0,0,1,170,6.16a5.89,5.89,0,0,1-1.76,4.31,5.68,5.68,0,0,1-4.2,1.78,5.8,5.8,0,0,1-4.3-1.82A6.05,6.05,0,0,1,157.93,6a5.84,5.84,0,0,1,1.76-4.26A5.81,5.81,0,0,1,163.94,0Zm-4.73,15.5h9.45V53.15h-9.45Z"/><path class="cls-5" d="M194.92,14.53a19.9,19.9,0,0,1,10,2.67,19.19,19.19,0,0,1,7.32,7.23,19.47,19.47,0,0,1,2.63,9.86,19.71,19.71,0,0,1-2.65,10A19.09,19.09,0,0,1,205,51.51,20,20,0,0,1,195,54.12a18.8,18.8,0,0,1-13.83-5.76,19.14,19.14,0,0,1-5.72-14,19,19,0,0,1,6.47-14.7A18.87,18.87,0,0,1,194.92,14.53Zm.16,8.9a9.71,9.71,0,0,0-7.33,3.06,10.88,10.88,0,0,0-2.93,7.84,11.08,11.08,0,0,0,2.89,8,9.69,9.69,0,0,0,7.34,3,9.82,9.82,0,0,0,7.38-3.08,11,11,0,0,0,2.94-7.92,10.94,10.94,0,0,0-2.89-7.88A9.82,9.82,0,0,0,195.08,23.43Z"/><path class="cls-6" d="M222.61,15.5h9.44v3.86a22.82,22.82,0,0,1,5.83-3.77,14.19,14.19,0,0,1,5.33-1.06,13,13,0,0,1,9.51,3.91Q256,21.77,256,28.27V53.15h-9.34V36.66q0-6.73-.61-8.95a6.13,6.13,0,0,0-2.1-3.37,5.93,5.93,0,0,0-3.71-1.16,7,7,0,0,0-4.92,1.92,10.25,10.25,0,0,0-2.85,5.31,42.18,42.18,0,0,0-.42,7.64v15.1h-9.44Z"/></g></g></svg>